<svg width="55" height="31" viewBox="0 0 55 31" fill="none" xmlns="http://www.w3.org/2000/svg">
<path d="M2.09767 4.97861C5.41256 2.33796 9.59387 1.03564 14.5895 1.03564C23.1806 1.03564 27.4762 5.96782 27.4762 15.8322V30.4625H18.5405V27.8772H18.1347C16.0233 29.815 13.2599 30.8655 10.4082 30.8144C7.44426 30.8144 5.00402 29.9831 3.02715 28.2901C1.10786 26.586 0.123535 24.591 0.123535 22.1941C0.123535 18.2595 1.74945 15.4997 4.48033 14.1586C7.22218 12.7482 9.8845 12.2189 13.1391 12.2189H18.5405C18.5405 9.69189 16.3909 7.58047 12.9636 7.58047C10.4658 7.58047 7.85005 8.57799 5.11918 10.5148L2.09767 4.97861ZM18.4829 18.894V18.1902H13.66C10.6988 18.1902 9.18807 19.1877 9.18808 21.2382C9.18808 22.9395 10.4658 24.1144 12.7881 24.1144C15.8672 24.1199 18.4829 22.0057 18.4829 18.894Z" fill="white"/>
<path d="M54.4929 21.7685C53.0397 27.1135 48.565 30.8709 41.4198 30.8709C37.307 30.8709 33.9839 29.6378 31.3682 27.2299C28.7552 24.7638 27.4775 21.7685 27.4775 18.3049V13.6664C27.4519 11.9625 27.7915 10.2731 28.4731 8.71431C29.1546 7.15553 30.1619 5.76428 31.4258 4.6361C34.0415 2.2282 37.4112 0.995148 41.4198 0.995148C48.6829 0.995147 53.2728 4.988 54.4929 10.3303L45.7766 12.5636C45.5625 11.517 44.992 10.5794 44.1643 9.91408C43.3367 9.24879 42.3043 8.89795 41.247 8.92267C40.6251 8.91828 40.0084 9.03784 39.4323 9.27449C38.8561 9.51114 38.3317 9.86025 37.8891 10.3019C37.4465 10.7435 37.0944 11.2689 36.853 11.8481C36.6115 12.4273 36.4853 13.049 36.4817 13.6775V18.2578C36.4817 20.8403 38.6889 22.9544 41.2471 22.9544C42.269 22.9684 43.2659 22.6343 44.0771 22.006C44.8883 21.3777 45.4667 20.4917 45.719 19.4908L54.4929 21.7685Z" fill="white"/>
</svg>
