<svg width="21" height="12" viewBox="0 0 21 12" fill="none" xmlns="http://www.w3.org/2000/svg">
<path d="M0.835283 2.10203C2.08495 1.12064 3.66124 0.636645 5.54452 0.636644C8.78325 0.636644 10.4026 2.46966 10.4026 6.13569V11.573H7.03399V10.6122H6.88101C6.08505 11.3323 5.04326 11.7227 3.96823 11.7037C2.85087 11.7037 1.93093 11.3948 1.18568 10.7656C0.462139 10.1323 0.0910645 9.39084 0.0910645 8.50007C0.0910644 7.03778 0.704011 6.01212 1.73351 5.5137C2.76715 4.98954 3.77081 4.79285 4.99773 4.79285H7.03399C7.03399 3.85369 6.22362 3.06899 4.93158 3.06899C3.98994 3.06899 3.00385 3.43972 1.97435 4.15954L0.835283 2.10203ZM7.01229 7.2736L7.01229 7.01204H5.19412C4.07779 7.01204 3.50826 7.38276 3.50826 8.1448C3.50826 8.77709 3.98994 9.21372 4.86543 9.21372C6.0262 9.21578 7.01229 8.43005 7.01229 7.2736Z" fill="#D61319"/>
<path d="M20.5875 8.34189C20.0397 10.3283 18.3528 11.7247 15.6591 11.7247C14.1087 11.7247 12.8559 11.2665 11.8698 10.3716C10.8848 9.45509 10.4031 8.34189 10.4031 7.05466V5.3308C10.3935 4.69753 10.5215 4.06969 10.7784 3.49038C11.0354 2.91107 11.4151 2.39402 11.8915 1.97474C12.8776 1.07985 14.148 0.621597 15.6591 0.621597C18.3972 0.621597 20.1275 2.10552 20.5875 4.09094L17.3016 4.92095C17.2209 4.53197 17.0058 4.18352 16.6938 3.93627C16.3818 3.68901 15.9926 3.55863 15.594 3.56781C15.3596 3.56618 15.1271 3.61061 14.9099 3.69856C14.6927 3.78652 14.495 3.91626 14.3281 4.08038C14.1613 4.2445 14.0286 4.43977 13.9375 4.65504C13.8465 4.8703 13.7989 5.10133 13.7976 5.33492V7.03715C13.7976 7.99691 14.6296 8.78264 15.594 8.78264C15.9793 8.78782 16.3551 8.66366 16.6609 8.43015C16.9667 8.19665 17.1848 7.86739 17.2799 7.49541L20.5875 8.34189Z" fill="#D61319"/>
</svg>
