<svg width="65" height="33" viewBox="0 0 65 33" fill="none" xmlns="http://www.w3.org/2000/svg">
<path d="M6.44761 15.9861C7.80238 13.6476 10.7765 12.8618 13.0905 14.2309C15.4044 15.6 16.182 18.6056 14.8272 20.9441L9.29959 30.4854C7.94481 32.8239 4.97071 33.6097 2.65675 32.2406C0.342778 30.8714 -0.434806 27.8658 0.919965 25.5274L6.44761 15.9861Z" fill="white"/>
<path d="M23.5802 9.78135C24.935 7.44287 27.9091 6.65706 30.2231 8.02618C32.537 9.3953 33.3146 12.4009 31.9598 14.7394L22.8375 30.4854C21.4828 32.8239 18.5087 33.6097 16.1947 32.2406C13.8807 30.8715 13.1032 27.8659 14.4579 25.5274L23.5802 9.78135Z" fill="white"/>
<path d="M40.9709 3.05811C42.3257 0.719634 45.2998 -0.0661842 47.6138 1.30294C49.9277 2.67206 50.7053 5.67766 49.3505 8.01614L36.3332 30.4855C34.9784 32.824 32.0043 33.6098 29.6903 32.2407C27.3764 30.8715 26.5988 27.8659 27.9536 25.5275L40.9709 3.05811Z" fill="white"/>
<path d="M46.8671 15.8091L50.8633 8.91121C51.6159 7.61223 51.885 6.16199 51.7259 4.77366L63.7493 25.5274C65.1041 27.8659 64.3265 30.8715 62.0126 32.2406C59.6986 33.6098 56.7245 32.824 55.3697 30.4855L46.8671 15.8091Z" fill="white"/>
<path d="M45.8515 14.0559L49.3505 8.01614C50.7053 5.67766 49.9277 2.67206 47.6138 1.30294C47.0542 0.971843 46.456 0.766773 45.8514 0.67921C45.2469 0.766778 44.6487 0.971845 44.0891 1.30293C41.7752 2.67205 40.9976 5.67765 42.3524 8.01613L45.8515 14.0559Z" fill="white"/>
</svg>
