<svg width="21" height="11" viewBox="0 0 21 11" fill="none" xmlns="http://www.w3.org/2000/svg">
<path d="M2.06965 5.14359C2.50243 4.40714 3.45251 4.15967 4.19171 4.59084C4.93091 5.02201 5.17931 5.96855 4.74653 6.705L2.98071 9.70979C2.54793 10.4462 1.59785 10.6937 0.858654 10.2625C0.119455 9.83136 -0.128945 8.88482 0.303838 8.14838L2.06965 5.14359Z" fill="#814B97"/>
<path d="M7.54268 3.18957C7.97546 2.45312 8.92554 2.20565 9.66474 2.63682C10.4039 3.06799 10.6523 4.01453 10.2196 4.75097L7.30543 9.70979C6.87264 10.4462 5.92256 10.6937 5.18337 10.2625C4.44417 9.83137 4.19577 8.88483 4.62855 8.14839L7.54268 3.18957Z" fill="#814B97"/>
<path d="M13.0982 1.07225C13.5309 0.33581 14.481 0.0883361 15.2202 0.519506C15.9594 0.950676 16.2078 1.89721 15.775 2.63366L11.6166 9.70981C11.1838 10.4463 10.2338 10.6937 9.49456 10.2626C8.75536 9.83139 8.50696 8.88485 8.93974 8.14841L13.0982 1.07225Z" fill="#814B97"/>
<path d="M14.9817 5.08785L16.2583 2.91554C16.4987 2.50646 16.5847 2.04974 16.5338 1.61252L20.3747 8.14841C20.8075 8.88485 20.5591 9.83139 19.8199 10.2626C19.0807 10.6937 18.1306 10.4463 17.6979 9.70981L14.9817 5.08785Z" fill="#814B97"/>
<path d="M14.6572 4.53574L15.775 2.63366C16.2078 1.89721 15.9594 0.950676 15.2202 0.519506C15.0415 0.415237 14.8504 0.350655 14.6572 0.323079C14.4641 0.350657 14.273 0.415237 14.0943 0.519503C13.3551 0.950673 13.1067 1.89721 13.5394 2.63366L14.6572 4.53574Z" fill="#814B97"/>
</svg>
