<svg width="51" height="48" viewBox="0 0 51 48" fill="none" xmlns="http://www.w3.org/2000/svg">
<path d="M47.8056 29.004C51.4621 26.8705 51.4621 21.5369 47.8056 19.4034L17.332 1.6231C13.6755 -0.510369 9.10479 2.15647 9.10479 6.42342V10.5751C11.0612 8.5965 14.5095 8.90756 15.9968 11.5082L27.1959 31.0915C28.8865 34.0477 26.7755 37.7447 23.3969 37.7447H9.10478V41.984C9.10478 46.2509 13.6755 48.9178 17.332 46.7843L47.8056 29.004Z" fill="white"/>
<path d="M9.34265 14.5827C10.6016 12.3265 13.8167 12.3265 15.0756 14.5827L23.868 30.3389C25.1052 32.5559 23.5201 35.2983 21.0015 35.2983H3.41678C0.898234 35.2983 -0.686852 32.5559 0.550289 30.3389L9.34265 14.5827Z" fill="white"/>
</svg>
