<svg width="17" height="16" viewBox="0 0 17 16" fill="none" xmlns="http://www.w3.org/2000/svg">
<path d="M15.5175 9.49682C16.6856 8.82493 16.6856 7.14523 15.5175 6.47334L5.78271 0.873891C4.61463 0.202008 3.15452 1.04186 3.15452 2.38563V3.69308C3.77948 3.06999 4.88106 3.16795 5.35617 3.98696L8.93374 10.1542C9.4738 11.0852 8.79944 12.2495 7.72014 12.2495H3.15452V13.5845C3.15452 14.9283 4.61463 15.7682 5.78271 15.0963L15.5175 9.49682Z" fill="#5CC0CD"/>
<path d="M3.2305 4.95518C3.63269 4.24466 4.65973 4.24466 5.06191 4.95518L7.87064 9.9172C8.26585 10.6154 7.75949 11.479 6.95493 11.479H1.33748C0.532926 11.479 0.026569 10.6154 0.421775 9.9172L3.2305 4.95518Z" fill="#5CC0CD"/>
</svg>
