<svg width="70" height="55" viewBox="0 0 70 55" fill="none" xmlns="http://www.w3.org/2000/svg">
<path d="M56.0028 13.2646H61.8415C64.0607 13.2646 65.8484 13.7872 67.2045 14.8323C68.5607 15.8775 69.2388 17.5435 69.2388 19.8303V28.8883C69.2388 29.5136 69.2344 29.9736 69.2256 30.2684C69.2168 30.5632 69.1728 30.925 69.0935 31.3538C69.0142 31.7826 68.8998 32.0863 68.7501 32.2649C68.6003 32.4436 68.3802 32.6044 68.0896 32.7473C67.799 32.8902 67.4335 32.9617 66.9932 32.9617H64.6683V52.766C64.6683 53.2127 64.5406 53.5923 64.2852 53.905C64.0298 54.2176 63.726 54.374 63.3738 54.374H60.1242C59.9305 54.374 59.7808 54.3606 59.6751 54.3338C59.5694 54.307 59.4813 54.2444 59.4109 54.1462C59.3404 54.0479 59.292 53.9586 59.2656 53.8782C59.2392 53.7978 59.1951 53.6504 59.1335 53.436C59.0718 53.2216 59.0058 53.0251 58.9353 52.8464C58.8825 52.9715 58.8209 53.1368 58.7504 53.3422C58.68 53.5477 58.6315 53.6861 58.6051 53.7576C58.5787 53.8291 58.5347 53.9184 58.473 54.0256C58.4114 54.1328 58.3453 54.2042 58.2749 54.24C58.2044 54.2757 58.1164 54.307 58.0107 54.3338C57.905 54.3606 57.7729 54.374 57.6144 54.374H54.5234C54.1359 54.374 53.8144 54.2221 53.5591 53.9184C53.3037 53.6147 53.176 53.2305 53.176 52.766V32.9617H50.8511C50.4108 32.9617 50.0453 32.8902 49.7547 32.7473C49.4641 32.6044 49.2439 32.4436 49.0942 32.2649C48.9445 32.0863 48.83 31.7826 48.7508 31.3538C48.6715 30.925 48.6275 30.5677 48.6187 30.2818C48.6099 29.996 48.6055 29.5315 48.6055 28.8883V19.8303C48.6055 17.5435 49.2836 15.8775 50.6397 14.8323C51.9959 13.7872 53.7836 13.2646 56.0028 13.2646ZM58.9353 11.9514C57.5263 11.9514 56.2582 11.3931 55.131 10.2765C54.0038 9.15989 53.4402 7.84228 53.4402 6.32368C53.4402 4.82294 54.0038 3.51873 55.131 2.41105C56.2582 1.30337 57.5263 0.749523 58.9353 0.749523C60.3444 0.749523 61.6169 1.30337 62.7529 2.41105C63.8889 3.51873 64.4569 4.82294 64.4569 6.32368C64.4569 7.84228 63.8889 9.15989 62.7529 10.2765C61.6169 11.3931 60.3444 11.9514 58.9353 11.9514ZM31.9614 13.2646H37.8265C40.0457 13.2646 41.829 13.7872 43.1763 14.8323C44.5237 15.8775 45.1974 17.5435 45.1974 19.8303V29.9602L45.1578 30.791L45.0257 31.5548L44.7879 32.1309L44.4048 32.5999L43.8104 32.8545L42.9782 32.9617H40.6269V52.766C40.6269 53.2127 40.4992 53.5923 40.2438 53.905C39.9884 54.2176 39.6846 54.374 39.3324 54.374H36.1092C35.8803 54.374 35.6997 54.3382 35.5676 54.2668C35.4355 54.1953 35.3475 54.1283 35.3034 54.0658C35.2594 54.0033 35.1978 53.8246 35.1185 53.5298C35.0392 53.235 34.9644 53.0072 34.8939 52.8464C34.8411 52.9894 34.7751 53.1814 34.6958 53.4226C34.6165 53.6638 34.5593 53.8157 34.5241 53.8782C34.4888 53.9407 34.4316 54.0256 34.3523 54.1328C34.2731 54.24 34.1762 54.307 34.0617 54.3338C33.9473 54.3606 33.7931 54.374 33.5994 54.374H30.4819C30.0945 54.374 29.7774 54.2221 29.5309 53.9184C29.2843 53.6147 29.161 53.2305 29.161 52.766V32.9617H26.8097C26.4927 32.9617 26.2153 32.926 25.9775 32.8545C25.7397 32.783 25.5416 32.6982 25.3831 32.5999C25.2245 32.5017 25.0968 32.3409 25 32.1175C24.9031 31.8942 24.8238 31.7066 24.7622 31.5548C24.7006 31.4029 24.6565 31.1483 24.6301 30.791C24.6037 30.4337 24.5905 30.1568 24.5905 29.9602V19.8303C24.5905 17.5435 25.2642 15.8775 26.6115 14.8323C27.9589 13.7872 29.7422 13.2646 31.9614 13.2646ZM34.8939 11.9514C33.4849 11.9514 32.2168 11.3931 31.0896 10.2765C29.9624 9.15989 29.3988 7.84228 29.3988 6.32368C29.3988 4.82294 29.9624 3.51873 31.0896 2.41105C32.2168 1.30337 33.4849 0.749523 34.8939 0.749523C36.303 0.749523 37.5755 1.30337 38.7115 2.41105C39.8475 3.51873 40.4155 4.82294 40.4155 6.32368C40.4155 7.84228 39.8475 9.15989 38.7115 10.2765C37.5755 11.3931 36.303 11.9514 34.8939 11.9514ZM7.94643 13.2646H13.7851C16.0043 13.2646 17.792 13.7872 19.1481 14.8323C20.5043 15.8775 21.1824 17.5435 21.1824 19.8303V28.8883C21.1824 29.5136 21.178 29.9736 21.1692 30.2684C21.1604 30.5632 21.1164 30.925 21.0371 31.3538C20.9578 31.7826 20.8434 32.0863 20.6937 32.2649C20.5439 32.4436 20.3238 32.6044 20.0332 32.7473C19.7426 32.8902 19.3771 32.9617 18.9368 32.9617H16.6119V52.766C16.6119 53.2127 16.4798 53.5923 16.2156 53.905C15.9514 54.2176 15.6432 54.374 15.2909 54.374H12.0678C11.8388 54.374 11.6583 54.3382 11.5262 54.2668C11.3941 54.1953 11.3061 54.1283 11.262 54.0658C11.218 54.0033 11.1564 53.8246 11.0771 53.5298C10.9978 53.235 10.923 53.0072 10.8525 52.8464C10.7997 52.9894 10.7336 53.1814 10.6544 53.4226C10.5751 53.6638 10.5179 53.8157 10.4827 53.8782C10.4474 53.9407 10.3902 54.0256 10.3109 54.1328C10.2317 54.24 10.1348 54.307 10.0203 54.3338C9.90585 54.3606 9.75174 54.374 9.558 54.374H6.46696C6.07948 54.374 5.75804 54.2221 5.50266 53.9184C5.24727 53.6147 5.11958 53.2305 5.11958 52.766V32.9617H2.7947C2.35438 32.9617 1.98891 32.8813 1.6983 32.7205C1.40769 32.5597 1.18753 32.3811 1.03783 32.1845C0.888118 31.988 0.773635 31.6664 0.694377 31.2198C0.61512 30.7731 0.571088 30.398 0.562282 30.0942C0.553475 29.7905 0.549072 29.3171 0.549072 28.6739V19.6159C0.549072 15.3817 3.01486 13.2646 7.94643 13.2646ZM10.8525 11.9514C9.44351 11.9514 8.17539 11.3931 7.04818 10.2765C5.92096 9.15989 5.35735 7.84228 5.35735 6.32368C5.35735 4.82294 5.92096 3.51873 7.04818 2.41105C8.17539 1.30337 9.44351 0.749523 10.8525 0.749523C12.2616 0.749523 13.5385 1.30337 14.6833 2.41105C15.8281 3.51873 16.4005 4.82294 16.4005 6.32368C16.4005 7.84228 15.8281 9.15989 14.6833 10.2765C13.5385 11.3931 12.2616 11.9514 10.8525 11.9514Z" fill="#555BFF"/>
</svg>
