<svg width="26" height="21" viewBox="0 0 26 21" fill="none" xmlns="http://www.w3.org/2000/svg">
<path d="M24.7289 0.510316H18.2159C16.8183 0.510316 15.4519 0.911682 14.2763 1.66887L12.8872 2.55985L11.498 1.66887C10.3236 0.911828 8.95569 0.509569 7.55838 0.510316H1.04542C0.541581 0.510316 0.134521 0.917376 0.134521 1.42122V17.5897C0.134521 18.0936 0.541581 18.5006 1.04542 18.5006H7.55838C8.95604 18.5006 10.3224 18.902 11.498 19.6592L12.7619 20.4733C12.7989 20.4961 12.8416 20.5103 12.8843 20.5103C12.927 20.5103 12.9697 20.4989 13.0067 20.4733L14.2706 19.6592C15.4491 18.902 16.8183 18.5006 18.2159 18.5006H24.7289C25.2327 18.5006 25.6398 18.0936 25.6398 17.5897V1.42122C25.6398 0.917376 25.2327 0.510316 24.7289 0.510316ZM7.55838 16.4511H2.18405V2.55985H7.55838C8.56606 2.55985 9.54528 2.84735 10.3907 3.39105L11.7798 4.28202L11.9763 4.41012V17.5613C10.6213 16.8326 9.10691 16.4511 7.55838 16.4511ZM23.5903 16.4511H18.2159C16.6674 16.4511 15.153 16.8326 13.7981 17.5613V4.41012L13.9945 4.28202L15.3836 3.39105C16.229 2.84735 17.2083 2.55985 18.2159 2.55985H23.5903V16.4511ZM9.61076 6.20346H4.32183C4.21081 6.20346 4.11972 6.30024 4.11972 6.41695V7.69791C4.11972 7.81462 4.21081 7.9114 4.32183 7.9114H9.60791C9.71892 7.9114 9.81002 7.81462 9.81002 7.69791V6.41695C9.81286 6.30024 9.72177 6.20346 9.61076 6.20346ZM15.9615 6.41695V7.69791C15.9615 7.81462 16.0525 7.9114 16.1636 7.9114H21.4496C21.5607 7.9114 21.6517 7.81462 21.6517 7.69791V6.41695C21.6517 6.30024 21.5607 6.20346 21.4496 6.20346H16.1636C16.0525 6.20346 15.9615 6.30024 15.9615 6.41695ZM9.61076 10.1887H4.32183C4.21081 10.1887 4.11972 10.2854 4.11972 10.4021V11.6831C4.11972 11.7998 4.21081 11.8966 4.32183 11.8966H9.60791C9.71892 11.8966 9.81002 11.7998 9.81002 11.6831V10.4021C9.81286 10.2854 9.72177 10.1887 9.61076 10.1887ZM21.4525 10.1887H16.1636C16.0525 10.1887 15.9615 10.2854 15.9615 10.4021V11.6831C15.9615 11.7998 16.0525 11.8966 16.1636 11.8966H21.4496C21.5607 11.8966 21.6517 11.7998 21.6517 11.6831V10.4021C21.6546 10.2854 21.5635 10.1887 21.4525 10.1887Z" fill="#555BFF"/>
</svg>
