<svg width="151" height="145" viewBox="0 0 151 145" fill="none" xmlns="http://www.w3.org/2000/svg">
<path fill-rule="evenodd" clip-rule="evenodd" d="M142.01 2.14679C144.682 4.8194 144.682 9.15255 142.01 11.8252L133.162 20.6732L148.853 36.365C151.526 39.0376 151.526 43.3707 148.853 46.0433L124.901 69.9961C122.228 72.6687 117.895 72.6687 115.222 69.9961L99.5305 54.3043L80.7348 73.1C82.8389 75.9457 84.6008 79.039 85.978 82.3171C88.2503 87.7259 89.4303 93.5308 89.4499 99.3975C89.4696 105.264 88.3286 111.077 86.0925 116.501C83.8565 121.925 80.5696 126.853 76.4212 131.001C72.2728 135.15 67.3448 138.437 61.9208 140.673C56.4969 142.909 50.6842 144.05 44.8175 144.03C38.9508 144.01 33.1459 142.83 27.7371 140.558C22.3283 138.286 17.4223 134.966 13.3018 130.79C13.2847 130.772 13.2677 130.755 13.2508 130.738C5.1477 122.348 0.664001 111.111 0.765353 99.4476C0.866706 87.7842 5.545 76.6271 13.7926 68.3795C22.0403 60.1319 33.1973 55.4536 44.8608 55.3522C54.2559 55.2706 63.3741 58.164 70.9504 63.5277L132.331 2.14679C135.004 -0.525818 139.337 -0.525818 142.01 2.14679ZM123.483 30.3516L109.209 44.626L120.061 55.4785L134.336 41.2042L123.483 30.3516ZM66.8306 77.8583C66.7669 77.8012 66.704 77.7427 66.6419 77.6827C60.8337 72.0729 53.0544 68.9688 44.9797 69.039C36.905 69.1091 29.1809 72.348 23.471 78.0579C17.7611 83.7678 14.5223 91.4919 14.4521 99.5666C14.382 107.629 17.4767 115.397 23.0706 121.203C25.9179 124.081 29.3052 126.371 33.0385 127.939C36.783 129.512 40.8018 130.329 44.8634 130.343C48.9249 130.356 52.9491 129.566 56.7041 128.018C60.4592 126.47 63.8709 124.195 66.7429 121.323C69.6148 118.451 71.8904 115.039 73.4384 111.284C74.9864 107.529 75.7763 103.505 75.7627 99.4434C75.7491 95.3818 74.9322 91.363 73.3591 87.6185C71.8287 83.9755 69.6119 80.6622 66.8306 77.8583Z" fill="white"/>
</svg>
