<svg width="54" height="54" viewBox="0 0 54 54" fill="none" xmlns="http://www.w3.org/2000/svg">
<path d="M53.767 26.9797C53.767 34.0908 50.9822 40.9106 46.0252 45.9388C41.0681 50.9671 34.345 53.7919 27.3347 53.7919C20.3244 53.7919 13.6012 50.9671 8.6442 45.9388C3.68717 40.9106 0.902344 34.0908 0.902344 26.9797C0.902344 19.8687 3.68717 13.0489 8.6442 8.02062C13.6012 2.99235 20.3244 0.167496 27.3347 0.167496C34.345 0.167496 41.0681 2.99235 46.0252 8.02062C50.9822 13.0489 53.767 19.8687 53.767 26.9797ZM19.0614 20.3873H21.7872C22.2432 20.3873 22.6066 20.0085 22.6661 19.5494C22.9634 17.3508 24.4503 15.7488 27.1001 15.7488C29.3667 15.7488 31.4416 16.8983 31.4416 19.6633C31.4416 21.7916 30.2059 22.7702 28.2532 24.2583C26.0296 25.8972 24.2685 27.8109 24.3941 30.9178L24.404 31.645C24.4075 31.8649 24.496 32.0746 24.6506 32.2289C24.8051 32.3831 25.0132 32.4696 25.23 32.4695H27.9096C28.1287 32.4695 28.3388 32.3812 28.4937 32.2241C28.6486 32.067 28.7356 31.8539 28.7356 31.6316V31.2797C28.7356 28.8733 29.6376 28.1729 32.0727 26.2994C34.0848 24.7476 36.1829 23.0249 36.1829 19.4086C36.1829 14.3445 31.967 11.8978 27.3512 11.8978C23.165 11.8978 18.579 13.8752 18.2651 19.5594C18.2606 19.6677 18.2779 19.7757 18.3161 19.8769C18.3542 19.9781 18.4124 20.0703 18.487 20.1478C18.5616 20.2253 18.651 20.2866 18.7498 20.3278C18.8485 20.3689 18.9546 20.3892 19.0614 20.3873ZM26.7433 41.9812C28.7587 41.9812 30.1431 40.6607 30.1431 38.8743C30.1431 37.0243 28.7554 35.7239 26.7433 35.7239C24.8137 35.7239 23.4095 37.0243 23.4095 38.8743C23.4095 40.6607 24.8137 41.9812 26.7466 41.9812H26.7433Z" fill="#555BFF"/>
</svg>
