<svg width="21" height="21" viewBox="0 0 21 21" fill="none" xmlns="http://www.w3.org/2000/svg">
<path fill-rule="evenodd" clip-rule="evenodd" d="M10.641 20.5033C10.7576 20.5174 10.8752 20.5106 10.9883 20.4843C16.172 20.1121 20.2617 15.7888 20.2617 10.5103C20.2617 5.23175 16.1719 0.908428 10.9881 0.536296C10.8752 0.510041 10.7577 0.503311 10.6412 0.517381C10.5153 0.512684 10.3888 0.510315 10.2617 0.510315C10.1347 0.510315 10.0082 0.512684 9.88225 0.517382C9.76572 0.503311 9.64823 0.510041 9.53527 0.536298C4.35155 0.908438 0.261719 5.23176 0.261719 10.5103C0.261719 15.7888 4.35147 20.1121 9.53511 20.4843C9.64817 20.5106 9.76578 20.5174 9.88242 20.5033C10.0083 20.5079 10.1347 20.5103 10.2617 20.5103C10.3887 20.5103 10.5152 20.5079 10.641 20.5033ZM10.2617 2.62535C9.56805 3.85011 9.04146 5.15675 8.69197 6.51031H11.8315C11.482 5.15675 10.9554 3.85011 10.2617 2.62535ZM12.214 8.51031H8.30938C8.22609 9.17147 8.1839 9.83939 8.1839 10.5103C8.1839 11.1813 8.22608 11.8492 8.30938 12.5103H12.214C12.2973 11.8492 12.3395 11.1813 12.3395 10.5103C12.3395 9.83939 12.2973 9.17147 12.214 8.51031ZM14.2281 12.5103C14.3021 11.8483 14.3395 11.1807 14.3395 10.5103C14.3395 9.83999 14.3021 9.17234 14.2281 8.51031H18.0097C18.1742 9.14956 18.2617 9.81972 18.2617 10.5103C18.2617 11.2009 18.1742 11.8711 18.0097 12.5103H14.2281ZM11.8315 14.5103H8.69196C9.04146 15.8639 9.56805 17.1705 10.2617 18.3953C10.9554 17.1705 11.482 15.8639 11.8315 14.5103ZM12.637 18.1518C13.1843 16.9847 13.6038 15.7637 13.8895 14.5103H17.1915C16.1946 16.2336 14.5733 17.5505 12.637 18.1518ZM12.637 2.86885C14.5733 3.47008 16.1946 4.787 17.1915 6.51031H13.8895C13.6038 5.25695 13.1843 4.03597 12.637 2.86885ZM7.8864 18.1518C7.33916 16.9847 6.91964 15.7637 6.63397 14.5103H3.33198C4.32885 16.2336 5.9501 17.5505 7.8864 18.1518ZM6.1839 10.5103C6.1839 9.83999 6.22133 9.17234 6.29535 8.51031H2.51375C2.34922 9.14956 2.26172 9.81972 2.26172 10.5103C2.26172 11.2009 2.34922 11.8711 2.51375 12.5103H6.29534C6.22133 11.8483 6.1839 11.1807 6.1839 10.5103ZM6.63397 6.51031C6.91965 5.25695 7.33917 4.03597 7.88641 2.86885C5.95011 3.47008 4.32886 4.78701 3.33198 6.51031H6.63397Z" fill="#555BFF"/>
</svg>
