<svg width="1293" height="559" viewBox="0 0 1293 559" fill="none" xmlns="http://www.w3.org/2000/svg">
<g clip-path="url(#clip0)">
<path d="M560.315 480.12H467.584C462.715 480.12 458.305 477.363 458.03 472.502C457.427 461.824 461.437 439.401 491.539 401.999C518.922 367.976 544.072 351.867 559.478 344.486C567.267 340.754 575.038 346.745 574.958 355.381L573.924 466.638C573.854 474.104 567.782 480.12 560.315 480.12Z" stroke="white" stroke-width="1.23722"/>
<path d="M734.908 479.605H827.639C832.508 479.605 836.918 476.848 837.193 471.987C837.796 461.309 833.786 438.886 803.684 401.484C776.301 367.46 751.151 351.351 735.745 343.97C727.956 340.239 720.185 346.229 720.265 354.866L721.299 466.122C721.369 473.588 727.441 479.605 734.908 479.605Z" stroke="white" stroke-width="1.23722"/>
<path d="M538.137 490.187C550.408 467.398 545.637 426.188 534.608 366.232C511.659 241.485 514.77 143.906 646.434 42.1285C778.099 143.906 782.248 241.485 759.299 366.232C748.27 426.188 746.756 467.398 759.027 490.187L646.984 490.42H646.807L538.137 490.187Z" stroke="white" stroke-width="1.23722"/>
<path d="M538.137 490.187C550.408 467.398 545.637 426.188 534.608 366.232C511.659 241.485 514.77 143.906 646.434 42.1285C778.099 143.906 782.248 241.485 759.299 366.232C748.27 426.188 746.756 467.398 759.027 490.187L646.984 490.42H646.807L538.137 490.187Z" stroke="white" stroke-width="1.23722"/>
<path d="M569.302 518.686L568.977 518.16L568.977 518.16L569.302 518.686ZM602.905 472.704L602.905 472.085L602.42 472.085L602.304 472.555L602.905 472.704ZM525.973 539.024L525.828 538.423L525.973 539.643L525.973 539.024ZM646.215 539.025L646.215 539.643H646.215V539.025ZM766.477 539.025V539.643L766.622 538.423L766.477 539.025ZM723.147 518.686L723.472 518.16L723.472 518.16L723.147 518.686ZM689.545 472.704L690.145 472.555L690.029 472.085L689.545 472.085L689.545 472.704ZM646.234 472.704L646.234 473.322H646.234L646.234 472.704ZM569.627 519.212C590.797 506.13 601.025 482.872 603.505 472.852L602.304 472.555C599.872 482.383 589.781 505.304 568.977 518.16L569.627 519.212ZM526.118 539.626C531.894 538.232 548.599 532.208 569.627 519.212L568.977 518.16C548.032 531.103 531.448 537.066 525.828 538.423L526.118 539.626ZM646.215 538.406L525.973 538.406L525.973 539.643L646.215 539.643L646.215 538.406ZM646.215 539.643H766.477V538.406H646.215V539.643ZM766.622 538.423C761.001 537.066 744.418 531.104 723.472 518.16L722.822 519.212C743.851 532.208 760.555 538.232 766.332 539.626L766.622 538.423ZM723.472 518.16C702.669 505.304 692.578 482.383 690.145 472.555L688.944 472.853C691.424 482.872 701.652 506.13 722.822 519.212L723.472 518.16ZM689.545 472.085L646.234 472.085L646.234 473.322L689.545 473.322L689.545 472.085ZM602.905 473.322L646.234 473.322L646.234 472.085L602.905 472.085L602.905 473.322Z" fill="white"/>
<path d="M124.522 539.024V469.308H206.503V407.235H315.244V344.598H420.588V282.525H523.999" stroke="white" stroke-width="1.23722"/>
<path d="M534.608 366.232L533.999 366.344L533.999 366.344L534.608 366.232ZM538.137 490.187L537.593 489.894L537.103 490.803L538.136 490.805L538.137 490.187ZM646.434 42.1285L646.813 41.6391L646.434 41.3467L646.056 41.6391L646.434 42.1285ZM759.299 366.232L758.691 366.12L758.691 366.12L759.299 366.232ZM759.027 490.187L759.029 490.805L760.062 490.803L759.572 489.894L759.027 490.187ZM646.984 490.42V491.039L646.985 491.039L646.984 490.42ZM646.807 490.42L646.806 491.039H646.807V490.42ZM533.999 366.344C539.514 396.321 543.457 421.577 544.492 442.178C545.528 462.794 543.646 478.653 537.593 489.894L538.682 490.48C544.9 478.932 546.767 462.791 545.728 442.116C544.688 421.426 540.731 396.1 535.216 366.12L533.999 366.344ZM646.056 41.6391C580.146 92.5884 546.355 142.534 531.944 195.404C517.539 248.254 522.521 303.95 533.999 366.344L535.216 366.12C523.746 303.768 518.809 248.3 533.138 195.73C547.462 143.179 581.059 93.4461 646.813 42.618L646.056 41.6391ZM646.056 42.618C711.811 93.4468 745.668 143.181 760.251 195.732C774.839 248.303 770.161 303.77 758.691 366.12L759.908 366.344C771.386 303.948 776.108 248.252 761.443 195.401C746.772 142.532 712.722 92.5877 646.813 41.6391L646.056 42.618ZM758.691 366.12C753.173 396.113 750.031 421.444 749.807 442.141C749.583 462.826 752.274 478.95 758.483 490.48L759.572 489.894C753.51 478.635 750.821 462.759 751.044 442.154C751.267 421.559 754.396 396.307 759.908 366.344L758.691 366.12ZM759.026 489.568L646.982 489.802L646.985 491.039L759.029 490.805L759.026 489.568ZM646.807 491.039H646.984V489.802H646.807V491.039ZM538.136 490.805L646.806 491.039L646.808 489.802L538.139 489.568L538.136 490.805Z" fill="white"/>
<circle cx="646.218" cy="214.459" r="68.7773" transform="rotate(-133.427 646.218 214.459)" stroke="white" stroke-width="1.23722"/>
<circle cx="646.218" cy="214.459" r="62.9885" transform="rotate(-2.78704 646.218 214.459)" stroke="white" stroke-width="1.23722"/>
<circle cx="646.218" cy="214.459" r="53.1438" stroke="white" stroke-width="1.23722"/>
<rect x="534.507" y="450.919" width="223.422" height="43.5707" rx="5.56748" stroke="white" stroke-width="1.23722"/>
<path d="M0 539.024H1292.44" stroke="white" stroke-width="1.23722"/>
<rect x="430.474" y="111.411" width="90.4558" height="62.8622" rx="10.5164" transform="rotate(-12.8341 430.474 111.411)" stroke="white" stroke-width="1.23722"/>
<path d="M293.483 18.0505C293.832 30.136 251.84 46.3678 262.144 83.3171C262.474 84.5028 262.88 85.6072 263.355 86.6343" stroke="white" stroke-width="1.23722"/>
<path d="M421.396 96.958C427.594 94.153 435.514 91.7591 443.493 92.1259C460.499 92.9078 463.236 96.8173 464.409 99.7495C465.347 102.095 463.888 102.682 463.041 102.682C463.432 104.571 463.627 108.663 461.281 109.914C458.349 111.478 462.454 114.215 454.244 113.237C446.034 112.26 442.852 107.477 439.567 108.752C437.887 109.404 436.741 109.959 434.094 112.985C431.131 116.372 434.463 120.487 425.9 114.997H421.396" stroke="white" stroke-width="1.23722"/>
<path d="M460.108 110.501C458.023 108.155 452.016 103.307 444.666 102.682" stroke="white" stroke-width="1.23722" stroke-linecap="round" stroke-linejoin="round"/>
<path d="M463.131 102.682C461.26 100.688 455.868 96.5671 449.27 96.0354" stroke="white" stroke-width="1.23722" stroke-linecap="round" stroke-linejoin="round"/>
<path d="M229.447 146.66C225.742 150.26 222.03 154.52 218.953 159.144C215.26 164.692 211.111 172.374 213.123 174.808C214.732 176.756 217.495 176.338 217.901 175.594C220.35 177.626 224.371 173.884 226.687 173.968C227.878 174.011 231.352 174.81 233.46 172.371L237.23 170.871C240.119 168.644 245.361 162.581 246.976 157.285" stroke="white" stroke-width="1.23722"/>
<path d="M225.459 173.992C224.343 171.3 224.594 166.948 226.54 164.213" stroke="white" stroke-width="1.23722" stroke-linecap="round" stroke-linejoin="round"/>
<path d="M233.789 171.77C232.729 168.816 232.729 167.578 235.701 160.827" stroke="white" stroke-width="1.23722" stroke-linecap="round" stroke-linejoin="round"/>
<path d="M218.126 175.977C217.83 174.371 217.715 170.145 219.616 166.089" stroke="white" stroke-width="1.23722" stroke-linecap="round" stroke-linejoin="round"/>
<path d="M331.28 344.333L392.487 344.556C393.034 335.978 388.065 332.307 378.324 328.536C370.531 325.52 368.447 322.11 368.379 317.884L331.28 318.282L331.28 344.333Z" stroke="white" stroke-width="1.23722"/>
<path d="M322.641 9.32943C300.489 10.2221 296.92 25.9044 297.905 33.634C296.384 33.8279 293.389 34.2389 292.8 40.1032C292.058 47.4947 299.135 47.776 301.663 51.2731C303.015 53.142 320.069 68.2124 333.926 60.032C346.351 52.6968 350.332 8.21363 322.641 9.32943Z" stroke="white" stroke-width="1.23722"/>
<path d="M226.245 315.314L272.503 355.394C278.511 349.248 277.138 343.225 272.212 334.014C268.271 326.646 268.914 322.701 271.618 319.453L243.232 295.563L226.245 315.314Z" stroke="white" stroke-width="1.23722"/>
<path d="M327.801 250.182C332.251 242.744 326.574 191.354 323.338 168.094L276.177 160.409C266.497 192.252 277.102 218.11 283.615 227.059L237.295 295.978L276.659 327.558C291.852 304.865 323.35 257.62 327.801 250.182Z" stroke="white" stroke-width="1.23722"/>
<path d="M369.812 236.183C370.084 228.048 368.089 169.099 361.981 156.276L315.698 169.81C322.133 198.07 323.896 219.893 323.74 236.808L322.952 321.883L373.302 321.883C372.471 295.983 369.539 244.318 369.812 236.183Z" stroke="white" stroke-width="1.23722"/>
<path d="M379.223 77.349C372.406 66.5742 354.428 64.0395 345.991 62.8874C332.222 61.0071 318.087 61.8141 298.097 66.8468C275.151 72.6237 263.593 86.2509 252.853 98.5724C236.026 117.876 228.306 130.566 221.721 142.139L254.934 162.012C270.253 142.139 276.659 135.221 279.446 143.867L273.602 171.263L365.099 166.815C362.9 161.098 360.99 131.315 361.907 122.427C363.648 127.192 371.087 138.15 386.92 143.867C402.752 149.584 416.422 141.485 421.278 136.721V96.0401C416.055 98.6971 404.126 103.736 398.189 102.637C390.768 101.263 387.744 90.8176 379.223 77.349Z" stroke="white" stroke-width="1.23722"/>
<path d="M361.318 110.433C362.142 107.405 362.917 99.7243 359.422 93.2282" stroke="white" stroke-width="1.23722" stroke-linecap="round" stroke-linejoin="round"/>
<path d="M280.517 129.91C288.907 115.846 294.116 110.905 302.396 105.029" stroke="white" stroke-width="1.23722" stroke-linecap="round" stroke-linejoin="round"/>
<path d="M329.832 34.1248C331.143 36.3279 333.366 41.9944 331.766 47.0349" stroke="white" stroke-width="1.23722" stroke-linecap="round" stroke-linejoin="round"/>
<path d="M330.702 52.6551C329.718 53.464 327.1 54.9796 324.505 54.5702" stroke="white" stroke-width="1.23722" stroke-linecap="round" stroke-linejoin="round"/>
<circle r="1.20519" transform="matrix(-1 0 0 1 319.887 34.7866)" stroke="white" stroke-width="1.23722"/>
<path d="M347.031 17.9143C344.851 3.7437 328.954 0.11022 321.279 0.0648082C291.847 -1.35225 291.575 20.8211 295.117 32.0849C297.797 35.2188 304.601 40.6418 310.378 37.2627C316.155 33.8835 321.415 26.1351 323.322 22.6833C332.134 26.9981 349.211 32.0849 347.031 17.9143Z" stroke="white" stroke-width="1.23722"/>
<path d="M878.931 346.267C875.781 347.035 872.489 347.443 869.103 347.443C846.273 347.443 827.766 328.936 827.766 306.106C827.766 283.276 846.273 264.769 869.103 264.769C891.932 264.769 910.439 283.276 910.439 306.106C910.439 309.399 910.054 312.602 909.327 315.672" stroke="white" stroke-width="1.23722"/>
<path d="M846.178 296.286C849.192 293.919 852.994 292.751 857.537 292.751C865.349 292.751 869.255 297.173 869.255 306.016L869.255 319.131L861.13 319.131L861.13 316.813L860.761 316.813C858.841 318.55 856.328 319.492 853.735 319.446C851.04 319.446 848.821 318.701 847.023 317.183C845.278 315.656 844.383 313.867 844.383 311.719C844.383 308.191 845.861 305.717 848.344 304.515C850.838 303.251 853.259 302.776 856.218 302.776L861.13 302.776C861.13 300.511 859.175 298.618 856.058 298.618C853.787 298.618 851.409 299.512 848.925 301.249L846.178 296.286ZM861.077 308.76L861.077 308.129L856.692 308.129C853.999 308.129 852.625 309.024 852.625 310.862C852.625 312.387 853.787 313.44 855.899 313.44C858.699 313.445 861.077 311.55 861.077 308.76Z" fill="white"/>
<path d="M893.823 311.337C892.501 316.129 888.432 319.497 881.935 319.497C878.195 319.497 875.173 318.392 872.794 316.233C870.418 314.022 869.257 311.337 869.257 308.232L869.257 304.074C869.233 302.547 869.542 301.032 870.162 299.635C870.782 298.237 871.698 296.99 872.847 295.979C875.225 293.82 878.29 292.715 881.935 292.715C888.539 292.715 892.713 296.294 893.823 301.083L885.896 303.085C885.702 302.147 885.183 301.307 884.43 300.71C883.678 300.114 882.739 299.799 881.778 299.821C881.212 299.818 880.651 299.925 880.127 300.137C879.603 300.349 879.127 300.662 878.724 301.058C878.322 301.454 878.002 301.925 877.782 302.444C877.562 302.963 877.448 303.521 877.444 304.084L877.444 308.19C877.444 310.505 879.451 312.4 881.778 312.4C882.707 312.413 883.613 312.113 884.351 311.55C885.089 310.987 885.615 310.193 885.844 309.295L893.823 311.337Z" fill="white"/>
<path d="M1127.25 424.271L1173.4 457.801C1178.38 461.424 1180.47 467.846 1178.57 473.709L1160.94 527.962C1159.03 533.824 1153.57 537.793 1147.41 537.793H1090.36C1084.2 537.793 1078.73 533.824 1076.83 527.962L1059.2 473.709C1057.3 467.846 1059.38 461.424 1064.37 457.801L1110.52 424.271C1115.51 420.648 1122.26 420.648 1127.25 424.271Z" stroke="white" stroke-width="1.23722"/>
<path d="M1025.38 200.565C1032.98 198.96 1045.25 201.193 1048.13 215.203C1047.78 227.289 1044.7 251.695 1035.17 252.636C1030.54 253.094 1026.8 253.295 1023.87 253.149" stroke="white" stroke-width="1.23722"/>
<path d="M914.999 322.867C910.949 319.358 909.623 313.412 908.655 317.323C906.901 324.412 905.637 327.43 902.698 330.2C899.575 333.144 896.248 327.286 888.038 326.071C879.828 324.857 883.933 328.257 881.001 330.2C878.655 331.754 878.85 336.838 879.241 339.186C878.394 339.186 876.935 339.914 877.873 342.828C879.046 346.471 881.782 351.328 898.789 352.3C904.416 352.621 910.014 351.236 914.999 349.17" stroke="white" stroke-width="1.23722"/>
<path d="M882.174 329.471C884.259 332.386 890.266 338.408 897.616 339.186" stroke="white" stroke-width="1.23722" stroke-linecap="round" stroke-linejoin="round"/>
<path d="M879.151 339.185C881.022 341.663 886.414 346.782 893.012 347.443" stroke="white" stroke-width="1.23722" stroke-linecap="round" stroke-linejoin="round"/>
<path d="M1014.64 202.809C1036.79 203.701 1040.36 219.384 1039.37 227.113C1040.89 227.307 1043.89 227.718 1044.48 233.582C1045.22 240.974 1038.14 241.255 1035.61 244.752C1034.26 246.621 1017.21 261.691 1003.35 253.511C990.927 246.176 986.945 201.693 1014.64 202.809Z" stroke="white" stroke-width="1.23722"/>
<path d="M1005.98 226.172C1004.67 228.376 1002.45 234.042 1004.05 239.083" stroke="white" stroke-width="1.23722" stroke-linecap="round" stroke-linejoin="round"/>
<path d="M1005.11 244.703C1006.1 245.512 1008.71 247.027 1011.31 246.618" stroke="white" stroke-width="1.23722" stroke-linecap="round" stroke-linejoin="round"/>
<path d="M1005.19 538.746L943.982 538.968C943.435 530.391 948.404 526.719 958.145 522.949C965.938 519.932 968.022 516.522 968.091 512.296L1005.19 512.694L1005.19 538.746Z" stroke="white" stroke-width="1.23722"/>
<path d="M1071.5 538.746L1010.3 538.968C1009.75 530.391 1014.72 526.719 1024.46 522.949C1032.25 519.932 1034.34 516.522 1034.41 512.296L1071.5 512.695L1071.5 538.746Z" stroke="white" stroke-width="1.23722"/>
<path d="M984.551 200.523C999.843 182.314 1021.02 195.787 1029.7 204.799L1042.65 219.89L1038.5 228.189L1035.23 236.489C1034.31 236.699 1032.26 236.992 1031.46 236.489C1030.65 235.986 1031.12 232.004 1031.46 230.076C1028.94 227.661 1029.24 221.441 1029.7 218.632C1008.28 220.183 969.26 218.733 984.551 200.523Z" stroke="white" stroke-width="1.23722"/>
<path d="M966.658 430.596C966.385 422.461 966.231 374.079 972.339 361.256L1019.67 363.768C1019.67 396.632 1016.44 416.249 1016.59 433.165L1013.52 516.295L963.168 516.295C963.998 490.395 966.93 438.731 966.658 430.596Z" stroke="white" stroke-width="1.23722"/>
<path d="M1016.64 439.335C1015.78 431.382 1011 377.229 1014.15 363.379L1062.83 365.538C1066.15 394.468 1066.7 407.653 1066.7 428.19L1075.41 516.908L1024.88 516.908C1020 491.456 1018.82 459.533 1016.64 439.335Z" stroke="white" stroke-width="1.23722"/>
<path d="M1015.06 323.929L1021.06 350.961C1039.96 353.461 1049.78 352.992 1059.15 348.264M1059.15 348.264C1082.33 336.569 1081.03 308.482 1078.49 292.334C1075.95 276.188 1061.32 267.036 1038.37 261.259C1018.38 256.227 1010.99 256.828 997.093 256.828C984.155 256.828 961.07 263.424 955.489 274.839C941.052 304.37 930.64 312.894 915.191 316.84L915.191 350.184C928.909 350.955 959.988 345.366 974.563 316.84C975.479 325.727 973.569 355.51 971.37 361.228L1062.87 365.675L1059.15 348.264Z" stroke="white" stroke-width="1.23722"/>
<path d="M994.63 324.831C1006.29 324.204 1012.7 330.931 1017 334.715L1019.68 347.043L1009.7 347.726C1005.29 350.27 995.635 354.927 992.286 353.205C988.099 351.053 998.984 345.965 997.98 342.638C996.975 339.311 992.453 344.986 985.42 345.965C978.386 346.943 981.903 344.204 979.391 342.638C977.382 341.386 977.549 337.289 977.884 335.398C977.158 335.398 975.908 334.811 976.712 332.462C977.716 329.527 980.061 325.613 994.63 324.831Z" stroke="white" stroke-width="1.23722"/>
<path d="M980.396 343.225C982.182 340.877 987.329 336.024 993.626 335.398" stroke="white" stroke-width="1.23722" stroke-linecap="round" stroke-linejoin="round"/>
<path d="M1050.52 302.092C1048.53 307.581 1039.36 319.002 1030.28 319.803" stroke="white" stroke-width="1.23722" stroke-linecap="round" stroke-linejoin="round"/>
<path d="M977.807 335.397C979.41 333.401 984.029 329.276 989.681 328.744" stroke="white" stroke-width="1.23722" stroke-linecap="round" stroke-linejoin="round"/>
<circle cx="1015.93" cy="226.834" r="1.20519" stroke="white" stroke-width="1.23722"/>
<circle cx="413.589" cy="506.487" r="31.919" stroke="white" stroke-width="1.23722"/>
<path fill-rule="evenodd" clip-rule="evenodd" d="M405.128 475.06H254.328V537.787H404.671C407.505 538.593 410.496 539.025 413.589 539.025H412.352H254.328H253.091V537.787V475.06V473.823H254.328H412.352H413.589L413.589 473.949C410.662 473.949 407.826 474.336 405.128 475.06Z" fill="white"/>
<mask id="path-57-inside-1" fill="white">
<path fill-rule="evenodd" clip-rule="evenodd" d="M254.309 473.949C239.216 473.949 226.981 488.517 226.981 506.487C226.981 524.457 239.216 539.024 254.309 539.025V473.949Z"/>
</mask>
<path d="M254.309 473.949H255.546V472.712L254.309 472.712L254.309 473.949ZM254.309 539.025L254.309 540.262L255.546 540.262V539.025H254.309ZM228.218 506.487C228.218 488.989 240.093 475.187 254.309 475.186L254.309 472.712C238.339 472.712 225.744 488.045 225.744 506.487H228.218ZM254.309 537.787C240.093 537.787 228.218 523.985 228.218 506.487H225.744C225.744 524.929 238.339 540.262 254.309 540.262L254.309 537.787ZM255.546 539.025V473.949H253.071V539.025H255.546Z" fill="white" mask="url(#path-57-inside-1)"/>
<path d="M473.13 121.107L468.278 118.648L458.611 137.554L463.464 140.013L473.13 121.107Z" fill="white"/>
<path d="M461.067 132.665L458.593 137.505L481.432 149.077L483.907 144.237L461.067 132.665Z" fill="white"/>
<path d="M491.093 130.187L486.24 127.728L476.581 146.62L481.434 149.078L491.093 130.187Z" fill="white"/>
<path d="M490.245 142.179L495.098 144.638L503.911 127.402L499.058 124.943L490.245 142.179Z" fill="white"/>
<path d="M502.184 130.779L504.659 125.939L481.82 114.366L479.345 119.206L502.184 130.779Z" fill="white"/>
<path d="M472.257 133.066L477.11 135.524L485.923 118.288L481.07 115.829L472.257 133.066Z" fill="white"/>
<path d="M1141.82 488.874C1145.35 486.844 1145.35 481.77 1141.82 479.74L1112.41 462.825C1108.88 460.795 1104.47 463.332 1104.47 467.391V471.341C1106.36 469.459 1109.69 469.755 1111.12 472.229L1121.93 490.86C1123.56 493.672 1121.52 497.19 1118.26 497.19H1104.47V501.223C1104.47 505.282 1108.88 507.819 1112.41 505.79L1141.82 488.874Z" fill="white"/>
<path d="M1104.7 475.154C1105.91 473.008 1109.02 473.008 1110.23 475.154L1118.72 490.144C1119.91 492.253 1118.38 494.862 1115.95 494.862H1098.98C1096.55 494.862 1095.02 492.253 1096.21 490.144L1104.7 475.154Z" fill="white"/>
<path d="M278.662 505.002C280.259 502.285 283.764 501.372 286.491 502.962C289.219 504.553 290.135 508.045 288.538 510.762L282.024 521.848C280.427 524.565 276.922 525.478 274.194 523.887C271.467 522.297 270.551 518.805 272.148 516.088L278.662 505.002Z" fill="white"/>
<path d="M298.855 497.792C300.451 495.075 303.956 494.162 306.684 495.753C309.411 497.344 310.327 500.836 308.731 503.553L297.979 521.848C296.382 524.565 292.877 525.478 290.15 523.888C287.423 522.297 286.506 518.805 288.103 516.088L298.855 497.792Z" fill="white"/>
<path d="M319.351 489.981C320.948 487.264 324.453 486.351 327.18 487.942C329.907 489.532 330.824 493.024 329.227 495.742L313.885 521.848C312.288 524.565 308.783 525.478 306.056 523.888C303.329 522.297 302.412 518.805 304.009 516.088L319.351 489.981Z" fill="white"/>
<path d="M326.3 504.796L331.01 496.781C331.897 495.272 332.214 493.587 332.026 491.974L346.197 516.088C347.794 518.805 346.877 522.297 344.15 523.888C341.423 525.478 337.918 524.565 336.321 521.848L326.3 504.796Z" fill="white"/>
<path d="M325.103 502.759L329.227 495.742C330.824 493.024 329.907 489.532 327.18 487.942C326.52 487.557 325.815 487.319 325.103 487.217C324.39 487.319 323.685 487.557 323.026 487.942C320.299 489.532 319.382 493.024 320.979 495.742L325.103 502.759Z" fill="white"/>
</g>
<defs>
<clipPath id="clip0">
<rect width="1292.44" height="558.49" fill="white"/>
</clipPath>
</defs>
</svg>
