<svg width="15" height="21" viewBox="0 0 15 21" fill="none" xmlns="http://www.w3.org/2000/svg">
<path d="M4.88721 19.5103C4.88721 20.0603 5.33721 20.5103 5.88721 20.5103H9.88721C10.4372 20.5103 10.8872 20.0603 10.8872 19.5103V18.5103H4.88721V19.5103ZM7.88721 0.510315C4.02721 0.510315 0.887207 3.65032 0.887207 7.51031C0.887207 9.89032 2.07721 11.9803 3.88721 13.2503V15.5103C3.88721 16.0603 4.33721 16.5103 4.88721 16.5103H10.8872C11.4372 16.5103 11.8872 16.0603 11.8872 15.5103V13.2503C13.6972 11.9803 14.8872 9.89032 14.8872 7.51031C14.8872 3.65032 11.7472 0.510315 7.88721 0.510315ZM10.7372 11.6103L9.88721 12.2103V14.5103H5.88721V12.2103L5.03721 11.6103C4.3747 11.151 3.83314 10.5383 3.45876 9.82432C3.08438 9.11038 2.88828 8.31646 2.88721 7.51031C2.88721 4.75031 5.12721 2.51031 7.88721 2.51031C10.6472 2.51031 12.8872 4.75031 12.8872 7.51031C12.8872 9.14032 12.0872 10.6703 10.7372 11.6103Z" fill="#555BFF"/>
</svg>
