<svg width="18" height="15" viewBox="0 0 18 15" fill="none" xmlns="http://www.w3.org/2000/svg">
<path d="M8.76154 4.55676L2.99998 9.30208V14.4236C2.99998 14.5562 3.05266 14.6834 3.14643 14.7772C3.24019 14.871 3.36737 14.9236 3.49998 14.9236L7.00185 14.9146C7.13403 14.9139 7.26056 14.8609 7.35379 14.7672C7.44702 14.6736 7.49936 14.5468 7.49935 14.4146V11.4236C7.49935 11.291 7.55203 11.1639 7.6458 11.0701C7.73957 10.9763 7.86675 10.9236 7.99935 10.9236H9.99936C10.132 10.9236 10.2591 10.9763 10.3529 11.0701C10.4467 11.1639 10.4994 11.291 10.4994 11.4236V14.4124C10.4991 14.4782 10.5119 14.5434 10.537 14.6042C10.562 14.6651 10.5988 14.7204 10.6452 14.767C10.6917 14.8135 10.7469 14.8505 10.8077 14.8757C10.8684 14.901 10.9336 14.914 10.9994 14.914L14.5 14.9236C14.6326 14.9236 14.7598 14.871 14.8535 14.7772C14.9473 14.6834 15 14.5562 15 14.4236V9.29864L9.23967 4.55676C9.17195 4.50218 9.08759 4.47241 9.0006 4.47241C8.91362 4.47241 8.82926 4.50218 8.76154 4.55676ZM17.8625 7.78208L15.25 5.62864V1.3002C15.25 1.20075 15.2105 1.10536 15.1401 1.03504C15.0698 0.96471 14.9744 0.925201 14.875 0.925201H13.125C13.0255 0.925201 12.9301 0.96471 12.8598 1.03504C12.7895 1.10536 12.75 1.20075 12.75 1.3002V3.56926L9.95217 1.26739C9.68367 1.04644 9.34676 0.925643 8.99904 0.925643C8.65133 0.925643 8.31441 1.04644 8.04592 1.26739L0.135605 7.78208C0.0976324 7.81346 0.0662161 7.85202 0.0431511 7.89555C0.0200861 7.93908 0.00582446 7.98673 0.00118114 8.03578C-0.00346217 8.08482 0.0016038 8.1343 0.0160896 8.18139C0.0305754 8.22848 0.0541971 8.27225 0.0856051 8.3102L0.88248 9.27895C0.913802 9.31704 0.952329 9.34857 0.995854 9.37175C1.03938 9.39493 1.08705 9.4093 1.13613 9.41403C1.18522 9.41876 1.23475 9.41376 1.28191 9.39932C1.32906 9.38489 1.3729 9.36129 1.41092 9.32989L8.76154 3.27551C8.82926 3.22093 8.91362 3.19116 9.0006 3.19116C9.08759 3.19116 9.17195 3.22093 9.23967 3.27551L16.5906 9.32989C16.6286 9.3613 16.6723 9.38492 16.7194 9.3994C16.7665 9.41389 16.816 9.41896 16.865 9.41431C16.9141 9.40967 16.9617 9.39541 17.0053 9.37234C17.0488 9.34928 17.0873 9.31786 17.1187 9.27989L17.9156 8.31114C17.947 8.27297 17.9705 8.22897 17.9848 8.18168C17.9991 8.13438 18.004 8.08473 17.999 8.03556C17.9941 7.9864 17.9795 7.9387 17.956 7.89519C17.9326 7.85169 17.9008 7.81325 17.8625 7.78208Z" fill="#555BFF"/>
</svg>
