<svg width="192" height="27" viewBox="0 0 192 27" fill="none" xmlns="http://www.w3.org/2000/svg">
<path d="M2.72713 3.86174C5.67769 1.53595 9.39944 0.388916 13.846 0.388916C21.4929 0.388916 25.3164 4.733 25.3164 13.4212V26.307H17.3628V24.03H17.0016C15.1223 25.7367 12.6625 26.6619 10.1243 26.6169C7.4861 26.6169 5.31405 25.8848 3.55445 24.3936C1.84611 22.8927 0.969971 21.1356 0.969971 19.0245C0.969971 15.559 2.41719 13.1283 4.84792 11.9471C7.28842 10.7049 9.65813 10.2388 12.555 10.2388H17.3628C17.3628 8.01302 15.4494 6.15336 12.3988 6.15336C10.1755 6.15336 7.84729 7.03194 5.41655 8.73785L2.72713 3.86174ZM17.3115 16.1179V15.498H13.0187C10.383 15.498 9.03825 16.3766 9.03825 18.1826C9.03825 19.681 10.1755 20.7158 12.2426 20.7158C14.9833 20.7207 17.3115 18.8586 17.3115 16.1179V16.1179Z" fill="#555BFF"/>
<path d="M49.3637 18.65C48.0702 23.3577 44.0873 26.667 37.7274 26.667C34.0667 26.667 31.1088 25.581 28.7805 23.4602C26.4548 21.2881 25.3175 18.65 25.3175 15.5993V11.514C25.2947 10.0132 25.597 8.52524 26.2036 7.15232C26.8103 5.77941 27.7068 4.55405 28.8318 3.56039C31.16 1.4396 34.1594 0.353577 37.7274 0.353577C44.1923 0.353577 48.2777 3.87033 49.3637 8.57561L41.6053 10.5426C41.4148 9.62081 40.907 8.79501 40.1703 8.20904C39.4336 7.62307 38.5147 7.31407 37.5736 7.33584C37.0201 7.33198 36.4712 7.43728 35.9583 7.64571C35.4455 7.85414 34.9787 8.16163 34.5848 8.55057C34.1908 8.93952 33.8774 9.40231 33.6625 9.91246C33.4475 10.4226 33.3353 10.9701 33.3321 11.5237V15.5579C33.3321 17.8324 35.2967 19.6945 37.5736 19.6945C38.4833 19.7068 39.3706 19.4125 40.0926 18.8591C40.8147 18.3058 41.3295 17.5254 41.5541 16.6439L49.3637 18.65Z" fill="#555BFF"/>
<path d="M72.7484 7.05106H76.9916C79.2956 7.05106 81.0332 7.64729 82.2044 8.83977C83.2668 9.92279 83.798 11.4551 83.798 13.4368C83.798 15.695 83.0588 17.3945 81.5804 18.5351C80.3644 19.4798 78.7516 19.9522 76.742 19.9522H72.7484V7.05106ZM74.0444 8.04479V18.9585H76.7036C78.6108 18.9585 80.0572 18.4573 81.0428 17.4549C81.9644 16.5159 82.4252 15.1823 82.4252 13.4541C82.4252 9.8479 80.5756 8.04479 76.8764 8.04479H74.0444Z" fill="#555BFF"/>
<path d="M92.1346 7.05106V19.9522H90.8386V7.05106H92.1346Z" fill="#555BFF"/>
<path d="M108.516 9.80757L107.22 10.1791C106.676 8.6007 105.575 7.81148 103.918 7.81148C102.887 7.81148 102.09 8.04767 101.527 8.52005C101.034 8.92906 100.788 9.45905 100.788 10.11C100.788 10.8819 101.057 11.4667 101.594 11.8642C102.062 12.1983 102.842 12.4863 103.937 12.7283L104.513 12.8752C106.286 13.2784 107.482 13.8113 108.103 14.4738C108.59 14.9865 108.833 15.6979 108.833 16.6081C108.833 17.7718 108.353 18.6791 107.393 19.3301C106.535 19.9119 105.402 20.2028 103.994 20.2028C102.638 20.2028 101.511 19.8946 100.615 19.2782C99.828 18.731 99.2648 17.9763 98.9256 17.0143L100.222 16.5736C100.74 18.3421 101.991 19.2264 103.975 19.2264C105.217 19.2264 106.142 18.9614 106.75 18.4314C107.236 17.9993 107.479 17.4261 107.479 16.7118C107.479 15.9168 107.22 15.3206 106.702 14.9231C106.202 14.5429 105.322 14.2088 104.062 13.9207L103.562 13.7911C101.943 13.4167 100.83 12.9126 100.222 12.2789C99.7224 11.7547 99.4728 11.049 99.4728 10.1619C99.4728 9.16525 99.8984 8.3501 100.75 7.71642C101.556 7.11731 102.606 6.81775 103.898 6.81775C106.196 6.81775 107.735 7.81436 108.516 9.80757Z" fill="#555BFF"/>
<path d="M125.896 10.3952L124.619 10.7495C124.068 8.80232 122.814 7.82876 120.856 7.82876C119.429 7.82876 118.302 8.38467 117.477 9.49649C116.715 10.5104 116.334 11.8469 116.334 13.506C116.334 15.4012 116.824 16.8674 117.803 17.9043C118.616 18.7626 119.633 19.1918 120.856 19.1918C122.916 19.1918 124.216 18.201 124.753 16.2193L126.011 16.6427C125.192 19.0161 123.467 20.2028 120.837 20.2028C119.013 20.2028 117.553 19.5403 116.459 18.2154C115.461 17.0114 114.961 15.4502 114.961 13.5319C114.961 11.3198 115.605 9.59442 116.891 8.35587C117.953 7.33045 119.269 6.81775 120.837 6.81775C122.193 6.81775 123.326 7.1778 124.235 7.89789C125.016 8.51429 125.569 9.34671 125.896 10.3952Z" fill="#555BFF"/>
<path d="M137.64 6.81775C139.471 6.81775 140.923 7.47735 141.999 8.79656C142.971 9.99479 143.458 11.5588 143.458 13.4887C143.458 15.7008 142.834 17.4233 141.586 18.6561C140.536 19.6872 139.221 20.2028 137.64 20.2028C135.81 20.2028 134.357 19.5403 133.282 18.2154C132.309 17.0171 131.823 15.456 131.823 13.5319C131.823 11.3198 132.453 9.59442 133.714 8.35587C134.763 7.33045 136.072 6.81775 137.64 6.81775ZM137.64 7.82876C136.213 7.82876 135.096 8.38179 134.29 9.48785C133.56 10.4902 133.195 11.8296 133.195 13.506C133.195 15.4185 133.666 16.8875 134.607 17.9129C135.394 18.7655 136.405 19.1918 137.64 19.1918C139.074 19.1918 140.194 18.6359 141 17.5241C141.723 16.5217 142.085 15.1823 142.085 13.506C142.085 11.5876 141.618 10.1215 140.683 9.10764C139.903 8.25505 138.888 7.82876 137.64 7.82876Z" fill="#555BFF"/>
<path d="M159.935 7.05106L155.164 19.9522H153.484L148.79 7.05106H150.201L152.994 15.0527C153.18 15.5712 153.41 16.251 153.686 17.092C154.006 18.0541 154.207 18.6647 154.29 18.9239H154.492C154.902 17.6047 155.321 16.3258 155.75 15.0873L158.62 7.05106H159.935Z" fill="#555BFF"/>
<path d="M175.232 7.05106V8.06207H167.705V12.5727H173.389V13.5837H167.705V18.9412H175.376V19.9522H166.409V7.05106H175.232Z" fill="#555BFF"/>
<path d="M182.023 7.05106H186.717C189.943 7.05106 191.556 8.15424 191.556 10.3606C191.556 11.2305 191.255 11.9534 190.653 12.5295C190.116 13.0537 189.367 13.4109 188.407 13.601L191.911 19.9522H190.48L187.188 13.7825C187.034 13.794 186.781 13.7998 186.429 13.7998H183.3V19.9522H182.023V7.05106ZM183.3 8.0275V12.8406H186.506C188.97 12.8406 190.202 12.0197 190.202 10.3779C190.202 9.53682 189.892 8.92906 189.271 8.55461C188.688 8.20321 187.805 8.0275 186.621 8.0275H183.3Z" fill="#555BFF"/>
<circle cx="61.0561" cy="13.5103" r="1.89224" fill="#555BFF"/>
</svg>
