<svg width="32" height="31" viewBox="0 0 32 31" fill="none" xmlns="http://www.w3.org/2000/svg">
<path d="M5.81689 9.85777C5.81689 9.55926 5.951 9.27298 6.18972 9.0619C6.42843 8.85082 6.75219 8.73224 7.08979 8.73224H24.9103C25.2479 8.73224 25.5716 8.85082 25.8103 9.0619C26.0491 9.27298 26.1832 9.55926 26.1832 9.85777C26.1832 10.1563 26.0491 10.4426 25.8103 10.6536C25.5716 10.8647 25.2479 10.9833 24.9103 10.9833H7.08979C6.75219 10.9833 6.42843 10.8647 6.18972 10.6536C5.951 10.4426 5.81689 10.1563 5.81689 9.85777Z" fill="#555BFF"/>
<path d="M5.81689 23.3641C5.81689 23.0656 5.951 22.7793 6.18972 22.5682C6.42843 22.3572 6.75219 22.2386 7.08979 22.2386H24.9103C25.2479 22.2386 25.5716 22.3572 25.8103 22.5682C26.0491 22.7793 26.1832 23.0656 26.1832 23.3641C26.1832 23.6626 26.0491 23.9489 25.8103 24.16C25.5716 24.3711 25.2479 24.4897 24.9103 24.4897H7.08979C6.75219 24.4897 6.42843 24.3711 6.18972 24.16C5.951 23.9489 5.81689 23.6626 5.81689 23.3641Z" fill="#555BFF"/>
<path d="M7.08979 15.4855C6.75219 15.4855 6.42843 15.6041 6.18972 15.8151C5.951 16.0262 5.81689 16.3125 5.81689 16.611C5.81689 16.9095 5.951 17.1958 6.18972 17.4069C6.42843 17.618 6.75219 17.7365 7.08979 17.7365H17.2729C17.6105 17.7365 17.9343 17.618 18.173 17.4069C18.4117 17.1958 18.5458 16.9095 18.5458 16.611C18.5458 16.3125 18.4117 16.0262 18.173 15.8151C17.9343 15.6041 17.6105 15.4855 17.2729 15.4855H7.08979Z" fill="#555BFF"/>
</svg>
