<svg width="151" height="151" viewBox="0 0 151 151" fill="none" xmlns="http://www.w3.org/2000/svg">
<path fill-rule="evenodd" clip-rule="evenodd" d="M54.2292 9.92955C55.7409 13.3937 54.1582 17.4274 50.694 18.9391C41.4728 22.9631 33.3778 29.1847 27.1166 37.0599C20.8554 44.9351 16.6186 54.2243 14.7768 64.1152C12.9349 74.0061 13.5441 84.1976 16.5509 93.7987C19.5577 103.4 24.8707 112.118 32.0253 119.192C39.18 126.265 47.9585 131.478 57.5933 134.375C67.2281 137.272 77.4259 137.765 87.2951 135.81C97.1643 133.855 106.404 129.513 114.208 123.162C122.011 116.811 128.14 108.646 132.058 99.3793C133.53 95.8981 137.545 94.2693 141.027 95.7414C144.508 97.2134 146.137 101.229 144.665 104.71C139.875 116.036 132.385 126.016 122.847 133.778C113.31 141.54 102.017 146.847 89.9543 149.236C77.8919 151.626 65.428 151.023 53.6521 147.483C41.8762 143.942 31.147 137.57 22.4024 128.925C13.6578 120.28 7.16418 109.624 3.48917 97.8893C-0.185845 86.1546 -0.930323 73.6983 1.32082 61.6094C3.57197 49.5206 8.75019 38.1672 16.4028 28.5419C24.0554 18.9166 33.9493 11.3125 45.2196 6.39431C48.6838 4.8826 52.7175 6.46539 54.2292 9.92955Z" fill="white"/>
<path fill-rule="evenodd" clip-rule="evenodd" d="M70.4928 2.14679C71.7762 0.863358 73.5169 0.142334 75.3319 0.142334C85.2179 0.142334 95.007 2.08951 104.14 5.87268C113.274 9.65586 121.573 15.2009 128.563 22.1913C135.553 29.1817 141.098 37.4805 144.882 46.6139C148.665 55.7473 150.612 65.5364 150.612 75.4223C150.612 79.202 147.548 82.266 143.768 82.266H75.3319C71.5523 82.266 68.4883 79.202 68.4883 75.4223V6.98597C68.4883 5.17093 69.2093 3.43022 70.4928 2.14679ZM82.1756 14.211V68.5787H136.543C135.902 62.8397 134.455 57.208 132.236 51.8518C129.141 44.3791 124.604 37.5891 118.885 31.8697C113.165 26.1503 106.375 21.6134 98.9025 18.5181C93.5463 16.2995 87.9146 14.8526 82.1756 14.211Z" fill="white"/>
</svg>
