<svg width="152" height="151" viewBox="0 0 152 151" fill="none" xmlns="http://www.w3.org/2000/svg">
<path fill-rule="evenodd" clip-rule="evenodd" d="M76.0847 13.8296C42.068 13.8296 14.492 41.4056 14.492 75.4223C14.492 109.439 42.068 137.015 76.0847 137.015C110.101 137.015 137.677 109.439 137.677 75.4223C137.677 41.4056 110.101 13.8296 76.0847 13.8296ZM0.804688 75.4223C0.804688 33.8463 34.5087 0.142334 76.0847 0.142334C117.661 0.142334 151.365 33.8463 151.365 75.4223C151.365 116.998 117.661 150.702 76.0847 150.702C34.5087 150.702 0.804688 116.998 0.804688 75.4223Z" fill="white"/>
<path fill-rule="evenodd" clip-rule="evenodd" d="M76.0847 41.2042C57.1865 41.2042 41.8665 56.5242 41.8665 75.4223C41.8665 94.3205 57.1865 109.641 76.0847 109.641C94.9829 109.641 110.303 94.3205 110.303 75.4223C110.303 56.5242 94.9829 41.2042 76.0847 41.2042ZM28.1792 75.4223C28.1792 48.9649 49.6272 27.5169 76.0847 27.5169C102.542 27.5169 123.99 48.9649 123.99 75.4223C123.99 101.88 102.542 123.328 76.0847 123.328C49.6272 123.328 28.1792 101.88 28.1792 75.4223Z" fill="white"/>
<path fill-rule="evenodd" clip-rule="evenodd" d="M76.0847 68.5787C72.3051 68.5787 69.2411 71.6427 69.2411 75.4223C69.2411 79.202 72.3051 82.266 76.0847 82.266C79.8643 82.266 82.9283 79.202 82.9283 75.4223C82.9283 71.6427 79.8643 68.5787 76.0847 68.5787ZM55.5538 75.4223C55.5538 64.0834 64.7458 54.8914 76.0847 54.8914C87.4236 54.8914 96.6156 64.0834 96.6156 75.4223C96.6156 86.7613 87.4236 95.9533 76.0847 95.9533C64.7458 95.9533 55.5538 86.7613 55.5538 75.4223Z" fill="white"/>
</svg>
