<svg width="55" height="40" viewBox="0 0 55 40" fill="none" xmlns="http://www.w3.org/2000/svg">
<path d="M20.5046 5.95893L15.692 1.94684L0.184629 20.9446L4.99725 24.9567L20.5046 5.95893Z" fill="white"/>
<path d="M4.14655 16.02L0.176514 20.8836L22.8278 39.7671L26.7978 34.9035L4.14655 16.02Z" fill="white"/>
<path d="M38.325 20.7858L33.5124 16.7738L18.0168 35.757L22.8295 39.7691L38.325 20.7858Z" fill="white"/>
<path d="M34.3948 34.1694L39.2074 38.1815L53.3455 20.8613L48.5329 16.8492L34.3948 34.1694Z" fill="white"/>
<path d="M50.5759 24.2548L54.5459 19.3912L31.8946 0.50769L27.9246 5.37128L50.5759 24.2548Z" fill="white"/>
<path d="M16.5546 19.2978L21.3672 23.3099L35.5053 5.98966L30.6927 1.97756L16.5546 19.2978Z" fill="white"/>
</svg>
