<svg width="21" height="15" viewBox="0 0 21 15" fill="none" xmlns="http://www.w3.org/2000/svg">
<path d="M7.75147 2.3034L5.93512 0.810636L0.0824085 7.87906L1.89876 9.37183L7.75147 2.3034Z" fill="#F76706"/>
<path d="M1.57769 6.04681L0.0793457 7.85639L8.62827 14.8823L10.1266 13.0727L1.57769 6.04681Z" fill="#F76706"/>
<path d="M14.4771 7.82001L12.6608 6.32724L6.81254 13.3903L8.62889 14.883L14.4771 7.82001Z" fill="#F76706"/>
<path d="M12.9938 12.7996L14.8102 14.2923L20.1461 7.84807L18.3297 6.3553L12.9938 12.7996Z" fill="#F76706"/>
<path d="M19.1008 9.11069L20.5991 7.30111L12.0502 0.275177L10.5518 2.08476L19.1008 9.11069Z" fill="#F76706"/>
<path d="M6.26066 7.26635L8.07701 8.75911L13.4129 2.31483L11.5966 0.822067L6.26066 7.26635Z" fill="#F76706"/>
</svg>
