<svg width="26" height="26" viewBox="0 0 26 26" fill="none" xmlns="http://www.w3.org/2000/svg">
<path fill-rule="evenodd" clip-rule="evenodd" d="M13.1088 0.661621C13.8853 0.661621 14.5148 1.29107 14.5148 2.06754V11.909H24.3562C25.1327 11.909 25.7621 12.5384 25.7621 13.3149C25.7621 14.0914 25.1327 14.7208 24.3562 14.7208H14.5148V24.5622C14.5148 25.3387 13.8853 25.9682 13.1088 25.9682C12.3324 25.9682 11.7029 25.3387 11.7029 24.5622V14.7208H1.86149C1.08502 14.7208 0.455566 14.0914 0.455566 13.3149C0.455566 12.5384 1.08502 11.909 1.86149 11.909H11.7029V2.06754C11.7029 1.29107 12.3324 0.661621 13.1088 0.661621Z" fill="white"/>
</svg>
