<svg width="22" height="22" viewBox="0 0 22 22" fill="none" xmlns="http://www.w3.org/2000/svg">
<path d="M10.9998 5.9793C11.5188 5.9793 11.9394 6.39998 11.9394 6.91892V9.73776H14.7583C15.2772 9.73776 15.6979 10.1584 15.6979 10.6774C15.6979 11.1963 15.2772 11.617 14.7583 11.617H11.9394V14.4358C11.9394 14.9548 11.5188 15.3754 10.9998 15.3754C10.4809 15.3754 10.0602 14.9548 10.0602 14.4358V11.617H7.24137C6.72243 11.617 6.30175 11.1963 6.30175 10.6774C6.30175 10.1584 6.72243 9.73776 7.24137 9.73776H10.0602V6.91892C10.0602 6.39998 10.4809 5.9793 10.9998 5.9793Z" fill="white"/>
<path fill-rule="evenodd" clip-rule="evenodd" d="M0.664062 10.6774C0.664062 4.96909 5.29154 0.341614 10.9998 0.341614C16.7081 0.341614 21.3356 4.96909 21.3356 10.6774C21.3356 16.3857 16.7081 21.0131 10.9998 21.0131C5.29154 21.0131 0.664062 16.3857 0.664062 10.6774ZM10.9998 2.22084C6.32941 2.22084 2.54329 6.00696 2.54329 10.6774C2.54329 15.3478 6.32941 19.1339 10.9998 19.1339C15.6702 19.1339 19.4564 15.3478 19.4564 10.6774C19.4564 6.00696 15.6702 2.22084 10.9998 2.22084Z" fill="white"/>
</svg>
