<svg width="54" height="54" viewBox="0 0 54 54" fill="none" xmlns="http://www.w3.org/2000/svg">
<path d="M52.8931 28.4014L41.4141 23.0415V7.6842C41.4088 7.362 41.3123 7.04814 41.1361 6.78002C40.9599 6.51191 40.7114 6.30084 40.4202 6.17199L27.997 0.375199C27.779 0.272837 27.5416 0.219818 27.3013 0.219818C27.0611 0.219818 26.8237 0.272837 26.6056 0.375199L14.1824 6.17199C13.8949 6.30697 13.6516 6.52275 13.4813 6.79376C13.311 7.06477 13.2209 7.37963 13.2217 7.701V23.0583L1.7924 28.4014C1.50487 28.5364 1.26154 28.7522 1.09126 29.0232C0.920978 29.2942 0.830886 29.6091 0.83167 29.9304V46.3631C0.830886 46.6845 0.920978 46.9993 1.09126 47.2703C1.26154 47.5413 1.50487 47.7571 1.7924 47.8921L14.2156 53.6889C14.4336 53.7912 14.671 53.8443 14.9113 53.8443C15.1515 53.8443 15.3889 53.7912 15.607 53.6889L27.3345 48.2113L39.0619 53.6889C39.28 53.7912 39.5174 53.8443 39.7576 53.8443C39.9979 53.8443 40.2353 53.7912 40.4533 53.6889L52.8765 47.8921C53.164 47.7571 53.4074 47.5413 53.5776 47.2703C53.7479 46.9993 53.838 46.6845 53.8372 46.3631V29.9304C53.8395 29.6109 53.7519 29.2973 53.5846 29.0265C53.4174 28.7557 53.1775 28.5388 52.8931 28.4014ZM48.2385 29.9304L39.7742 33.8454L31.3099 29.9304L39.7742 25.9819L48.2385 29.9304ZM27.3345 3.73566L35.7988 7.6842L27.3345 11.6327L18.8867 7.6842L27.3345 3.73566ZM14.9113 25.9651L23.3756 29.9136L14.9113 33.8454L6.44695 29.9304L14.9113 25.9651ZM25.678 45.2709L14.9113 50.3116L4.14452 45.2709V32.5516L14.2156 37.2058C14.4291 37.3032 14.6606 37.3535 14.8947 37.3535C15.1288 37.3535 15.3603 37.3032 15.5738 37.2058L25.6449 32.5012L25.678 45.2709ZM16.5677 23.0415V10.3222L26.6388 15.0268C26.8568 15.1292 27.0942 15.1822 27.3345 15.1822C27.5747 15.1822 27.8121 15.1292 28.0301 15.0268L38.1012 10.3222V23.0583L27.3345 28.099L16.5677 23.0415ZM50.541 45.2877L39.7742 50.3284L28.9909 45.2877V32.5348L39.0785 37.2058C39.2898 37.3008 39.5183 37.3498 39.7493 37.3498C39.9804 37.3498 40.2089 37.3008 40.4202 37.2058L50.4913 32.5012L50.541 45.2877Z" fill="#555BFF"/>
</svg>
