<svg width="20" height="17" viewBox="0 0 20 17" fill="none" xmlns="http://www.w3.org/2000/svg">
<path d="M14.1353 0.510315H12.1353V8.41031L14.1353 6.41031V0.510315ZM0.135254 0.510315H2.13525V16.5103H0.135254V0.510315ZM6.13525 0.510315H8.13525V4.51031H6.13525V0.510315ZM6.13525 6.51031H8.13525V10.5103H6.13525V6.51031ZM6.13525 12.5103H8.13525V16.5103H6.13525V12.5103ZM18.6953 9.10032L17.5453 7.95031C17.4067 7.81002 17.2416 7.69864 17.0597 7.62262C16.8777 7.5466 16.6825 7.50745 16.4853 7.50745C16.2881 7.50745 16.0928 7.5466 15.9109 7.62262C15.7289 7.69864 15.5638 7.81002 15.4253 7.95031L10.1353 13.2403V16.5103H13.4053L18.6953 11.2203C19.2853 10.6303 19.2853 9.68032 18.6953 9.10032ZM12.7153 14.9603H11.6853V13.9303L15.1353 10.4803L16.1653 11.5103L12.7153 14.9603Z" fill="#555BFF"/>
</svg>
