<svg width="25" height="17" viewBox="0 0 25 17" fill="none" xmlns="http://www.w3.org/2000/svg">
<path d="M12.7379 3.84365C12.2963 3.85055 11.8579 3.92071 11.4362 4.05198C11.6313 4.39503 11.7352 4.78236 11.7379 5.17698C11.7379 5.4834 11.6775 5.78682 11.5603 6.06991C11.443 6.353 11.2711 6.61023 11.0545 6.8269C10.8378 7.04357 10.5806 7.21544 10.2975 7.3327C10.0144 7.44996 9.71098 7.51032 9.40456 7.51032C9.00994 7.50758 8.62261 7.40372 8.27956 7.20865C8.00891 8.14731 8.04045 9.14734 8.36973 10.0671C8.699 10.9868 9.30931 11.7796 10.1142 12.3333C10.9191 12.8869 11.8778 13.1732 12.8545 13.1517C13.8311 13.1301 14.7763 12.8019 15.556 12.2134C16.3357 11.6248 16.9105 10.8059 17.199 9.87256C17.4874 8.93921 17.4749 7.93876 17.1632 7.01293C16.8515 6.08709 16.2563 5.28281 15.4621 4.714C14.6679 4.1452 13.7148 3.8407 12.7379 3.84365V3.84365ZM24.5929 7.90198C22.3333 3.49323 17.86 0.510315 12.7379 0.510315C7.61581 0.510315 3.14123 3.49532 0.882892 7.9024C0.787576 8.09094 0.737915 8.29925 0.737915 8.51052C0.737915 8.72179 0.787576 8.9301 0.882892 9.11865C3.14248 13.5274 7.61581 16.5103 12.7379 16.5103C17.86 16.5103 22.3346 13.5253 24.5929 9.11823C24.6882 8.92969 24.7379 8.72138 24.7379 8.51011C24.7379 8.29884 24.6882 8.09053 24.5929 7.90198V7.90198ZM12.7379 14.5103C8.62748 14.5103 4.85914 12.2186 2.82414 8.51032C4.85914 4.80198 8.62706 2.51032 12.7379 2.51032C16.8487 2.51032 20.6166 4.80198 22.6516 8.51032C20.6171 12.2186 16.8487 14.5103 12.7379 14.5103Z" fill="#555BFF"/>
</svg>
