<svg width="139" height="19" viewBox="0 0 139 19" fill="none" xmlns="http://www.w3.org/2000/svg">
<path d="M2.12882 2.58059C4.24812 0.910035 6.92135 0.0861511 10.1152 0.0861511C15.6078 0.0861511 18.354 3.20638 18.354 9.44685V18.7024H12.6412V17.0669H12.3818C11.0319 18.2927 9.26512 18.9573 7.44198 18.925C5.54705 18.925 3.98693 18.3991 2.72306 17.3281C1.496 16.25 0.866699 14.9879 0.866699 13.4716C0.866699 10.9824 1.90619 9.23649 3.65212 8.38807C5.40506 7.49582 7.10716 7.16101 9.1879 7.16101H12.6412C12.6412 5.56233 11.2669 4.22659 9.07572 4.22659C7.47879 4.22659 5.80648 4.85765 4.06055 6.08295L2.12882 2.58059ZM12.6044 11.3838V10.9386H9.52096C7.62778 10.9386 6.66192 11.5697 6.66192 12.8668C6.66192 13.9431 7.47879 14.6864 8.96353 14.6864C10.9321 14.6899 12.6044 13.3524 12.6044 11.3838V11.3838Z" fill="#555BFF"/>
<path d="M35.6265 13.202C34.6974 16.5834 31.8366 18.9604 27.2684 18.9604C24.639 18.9604 22.5145 18.1803 20.8422 16.657C19.1716 15.0969 18.3547 13.202 18.3547 11.0108V8.0764C18.3384 6.99843 18.5555 5.92968 18.9912 4.94356C19.427 3.95744 20.0709 3.07729 20.879 2.36358C22.5513 0.840272 24.7056 0.0602112 27.2684 0.0602112C31.912 0.0602112 34.8464 2.5862 35.6265 5.96586L30.0539 7.37873C29.917 6.7166 29.5523 6.12345 29.0231 5.70257C28.494 5.28169 27.8339 5.05974 27.158 5.07537C26.7604 5.0726 26.3661 5.14823 25.9978 5.29795C25.6294 5.44766 25.2941 5.66851 25.0112 5.94788C24.7282 6.22725 24.5031 6.55966 24.3487 6.92609C24.1943 7.29252 24.1137 7.68579 24.1114 8.08342V10.981C24.1114 12.6148 25.5225 13.9523 27.158 13.9523C27.8114 13.9611 28.4487 13.7497 28.9673 13.3522C29.486 12.9548 29.8557 12.3943 30.017 11.7611L35.6265 13.202Z" fill="#555BFF"/>
<path d="M52.4231 4.87083H55.4709C57.1257 4.87083 58.3738 5.29909 59.215 6.15561C59.9781 6.93351 60.3597 8.03416 60.3597 9.45755C60.3597 11.0796 59.8287 12.3002 58.7668 13.1195C57.8934 13.7981 56.735 14.1374 55.2916 14.1374H52.4231V4.87083ZM53.354 5.58459V13.4236H55.264C56.6339 13.4236 57.6728 13.0636 58.3807 12.3436C59.0427 11.6692 59.3736 10.7113 59.3736 9.46996C59.3736 6.87972 58.0451 5.58459 55.3881 5.58459H53.354Z" fill="#555BFF"/>
<path d="M66.3476 4.87083V14.1374H65.4167V4.87083H66.3476Z" fill="#555BFF"/>
<path d="M78.1139 6.85075L77.183 7.11764C76.7923 5.98389 76.0016 5.41701 74.811 5.41701C74.0709 5.41701 73.4986 5.58666 73.0941 5.92596C72.7401 6.21974 72.5631 6.60042 72.5631 7.06799C72.5631 7.62245 72.7562 8.04243 73.1423 8.32794C73.4779 8.56793 74.0387 8.77482 74.8248 8.9486L75.2385 9.05412C76.5119 9.34376 77.3715 9.72651 77.8174 10.2024C78.1668 10.5706 78.3414 11.0816 78.3414 11.7354C78.3414 12.5712 77.9967 13.2229 77.3071 13.6905C76.6911 14.1084 75.8775 14.3174 74.8662 14.3174C73.8916 14.3174 73.0826 14.096 72.439 13.6533C71.8736 13.2602 71.469 12.7181 71.2254 12.0271L72.1563 11.7106C72.5286 12.9809 73.4273 13.616 74.8524 13.616C75.7442 13.616 76.4084 13.4257 76.8451 13.045C77.1945 12.7347 77.3692 12.323 77.3692 11.8099C77.3692 11.2389 77.183 10.8106 76.8107 10.5251C76.4521 10.252 75.82 10.012 74.9144 9.80512L74.5559 9.71202C73.3929 9.44307 72.593 9.08101 72.1563 8.62586C71.7977 8.24932 71.6184 7.74244 71.6184 7.10523C71.6184 6.38939 71.9241 5.8039 72.5355 5.34874C73.1147 4.91841 73.8686 4.70325 74.7972 4.70325C76.4475 4.70325 77.5531 5.41908 78.1139 6.85075Z" fill="#555BFF"/>
<path d="M90.5973 7.27281L89.6802 7.52728C89.2849 6.12871 88.3839 5.42943 86.9772 5.42943C85.9521 5.42943 85.143 5.82872 84.55 6.62731C84.003 7.35556 83.7295 8.31552 83.7295 9.5072C83.7295 10.8685 84.0812 11.9216 84.7845 12.6664C85.3683 13.2829 86.0992 13.5912 86.9772 13.5912C88.4574 13.5912 89.3906 12.8795 89.7767 11.4561L90.68 11.7602C90.0916 13.465 88.8528 14.3174 86.9634 14.3174C85.6533 14.3174 84.6052 13.8415 83.8191 12.8898C83.102 12.025 82.7435 10.9037 82.7435 9.52582C82.7435 7.93692 83.2054 6.69765 84.1294 5.80803C84.8925 5.07151 85.8372 4.70325 86.9634 4.70325C87.938 4.70325 88.7516 4.96186 89.4044 5.47908C89.9652 5.92182 90.3628 6.51973 90.5973 7.27281Z" fill="#555BFF"/>
<path d="M99.0331 4.70325C100.348 4.70325 101.391 5.17702 102.164 6.12457C102.862 6.98523 103.212 8.10864 103.212 9.49479C103.212 11.0837 102.763 12.3209 101.867 13.2064C101.113 13.947 100.169 14.3174 99.0331 14.3174C97.7184 14.3174 96.6749 13.8415 95.9026 12.8898C95.2039 12.0292 94.8545 10.9078 94.8545 9.52582C94.8545 7.93692 95.3073 6.69765 96.2129 5.80803C96.9668 5.07151 97.9068 4.70325 99.0331 4.70325ZM99.0331 5.42943C98.008 5.42943 97.2058 5.82665 96.6266 6.62111C96.1026 7.34108 95.8405 8.30311 95.8405 9.5072C95.8405 10.8809 96.1784 11.9361 96.8542 12.6726C97.4196 13.285 98.1459 13.5912 99.0331 13.5912C100.063 13.5912 100.867 13.1919 101.446 12.3933C101.966 11.6733 102.226 10.7113 102.226 9.5072C102.226 8.12932 101.89 7.07626 101.219 6.34801C100.658 5.73562 99.9295 5.42943 99.0331 5.42943Z" fill="#555BFF"/>
<path d="M115.047 4.87083L111.62 14.1374H110.413L107.041 4.87083H108.055L110.062 10.6182C110.195 10.9906 110.36 11.4789 110.558 12.083C110.788 12.774 110.933 13.2126 110.992 13.3988H111.137C111.431 12.4512 111.733 11.5326 112.041 10.643L114.102 4.87083H115.047Z" fill="#555BFF"/>
<path d="M126.034 4.87083V5.59701H120.628V8.83688H124.71V9.56306H120.628V13.4112H126.137V14.1374H119.697V4.87083H126.034Z" fill="#555BFF"/>
<path d="M130.912 4.87083H134.284C136.6 4.87083 137.759 5.66321 137.759 7.24798C137.759 7.87278 137.543 8.39207 137.111 8.80585C136.725 9.18239 136.187 9.43893 135.497 9.57548L138.014 14.1374H136.987L134.622 9.70582C134.511 9.71409 134.33 9.71823 134.077 9.71823H131.829V14.1374H130.912V4.87083ZM131.829 5.57218V9.02929H134.132C135.902 9.02929 136.787 8.43966 136.787 7.26039C136.787 6.65628 136.564 6.21974 136.118 5.95079C135.699 5.69838 135.065 5.57218 134.215 5.57218H131.829Z" fill="#555BFF"/>
<circle cx="44.0248" cy="9.51033" r="1.35914" fill="#555BFF"/>
</svg>
